<?xml version="1.0" encoding="UTF-8"?><svg xmlns="http://www.w3.org/2000/svg" xmlns:xlink="http://www.w3.org/1999/xlink" fill-opacity="1" color-rendering="auto" color-interpolation="auto" text-rendering="auto" stroke="black" stroke-linecap="square" width="152" stroke-miterlimit="10" shape-rendering="auto" stroke-opacity="1" fill="black" stroke-dasharray="none" font-weight="normal" stroke-width="1" height="280" font-family="'Dialog'" font-style="normal" stroke-linejoin="miter" font-size="12px" stroke-dashoffset="0" image-rendering="auto">
  <!--Generated by ySVG 2.6-->
  <defs id="genericDefs"/>
  <g>
    <defs id="defs1">
      <clipPath clipPathUnits="userSpaceOnUse" id="clipPath1">
        <path d="M0 0 L152 0 L152 280 L0 280 L0 0 Z"/>
      </clipPath>
      <clipPath clipPathUnits="userSpaceOnUse" id="clipPath2">
        <path d="M147 181 L299 181 L299 461 L147 461 L147 181 Z"/>
      </clipPath>
    </defs>
    <g fill="white" text-rendering="geometricPrecision" shape-rendering="geometricPrecision" transform="translate(-147,-181)" stroke="white">
      <rect x="147" width="152" height="280" y="181" clip-path="url(#clipPath2)" stroke="none"/>
    </g>
    <g text-rendering="geometricPrecision" stroke-miterlimit="1.45" shape-rendering="geometricPrecision" transform="matrix(1,0,0,1,-147,-181)" stroke-linecap="butt">
      <rect fill="none" x="162" width="122" height="56" y="196" clip-path="url(#clipPath2)"/>
      <text x="196.832" xml:space="preserve" y="228.5352" clip-path="url(#clipPath2)" font-family="sans-serif" stroke="none">Frontend</text>
      <rect fill="none" x="162" width="122" height="56" y="293" clip-path="url(#clipPath2)"/>
      <text x="198.8125" xml:space="preserve" y="325.5352" clip-path="url(#clipPath2)" font-family="sans-serif" stroke="none">Backend</text>
      <rect fill="none" x="162" width="122" height="56" y="390" clip-path="url(#clipPath2)"/>
      <text x="186.8389" xml:space="preserve" y="422.5352" clip-path="url(#clipPath2)" font-family="sans-serif" stroke="none">Baza danych</text>
      <path fill="none" d="M223 293 L223 252" clip-path="url(#clipPath2)"/>
      <path fill="none" d="M223 349 L223 390" clip-path="url(#clipPath2)"/>
    </g>
  </g>
</svg>
