<?xml version="1.0" encoding="UTF-8"?><svg xmlns="http://www.w3.org/2000/svg" xmlns:xlink="http://www.w3.org/1999/xlink" fill-opacity="1" color-rendering="auto" color-interpolation="auto" text-rendering="auto" stroke="black" stroke-linecap="square" width="426" stroke-miterlimit="10" shape-rendering="auto" stroke-opacity="1" fill="black" stroke-dasharray="none" font-weight="normal" stroke-width="1" height="246" font-family="'Dialog'" font-style="normal" stroke-linejoin="miter" font-size="12px" stroke-dashoffset="0" image-rendering="auto">
  <!--Generated by ySVG 2.6-->
  <defs id="genericDefs"/>
  <g>
    <defs id="defs1">
      <clipPath clipPathUnits="userSpaceOnUse" id="clipPath1">
        <path d="M0 0 L426 0 L426 246 L0 246 L0 0 Z"/>
      </clipPath>
      <clipPath clipPathUnits="userSpaceOnUse" id="clipPath2">
        <path d="M32 198 L458 198 L458 444 L32 444 L32 198 Z"/>
      </clipPath>
    </defs>
    <g fill="white" text-rendering="geometricPrecision" shape-rendering="geometricPrecision" transform="translate(-32,-198)" stroke="white">
      <rect x="32" width="426" height="246" y="198" clip-path="url(#clipPath2)" stroke="none"/>
    </g>
    <g text-rendering="geometricPrecision" stroke-miterlimit="1.45" shape-rendering="geometricPrecision" transform="matrix(1,0,0,1,-32,-198)" stroke-linecap="butt">
      <rect fill="none" x="187" width="89" height="70" y="286" clip-path="url(#clipPath2)"/>
      <text x="206.0352" xml:space="preserve" y="325.5352" clip-path="url(#clipPath2)" font-family="sans-serif" stroke="none">GraphQL</text>
      <rect fill="none" x="354" width="89" height="70" y="213" clip-path="url(#clipPath2)"/>
      <text x="372.8799" xml:space="preserve" y="252.5352" clip-path="url(#clipPath2)" font-family="sans-serif" stroke="none">REST Api</text>
      <rect fill="none" x="354" width="89" height="70" y="359" clip-path="url(#clipPath2)"/>
      <text x="372.8799" xml:space="preserve" y="398.5352" clip-path="url(#clipPath2)" font-family="sans-serif" stroke="none">REST Api</text>
      <ellipse rx="37" fill="none" ry="27.5" clip-path="url(#clipPath2)" cx="84" cy="321"/>
      <text x="68.1475" xml:space="preserve" y="325.5352" clip-path="url(#clipPath2)" font-family="sans-serif" stroke="none">client</text>
      <path fill="none" d="M276 301.5479 L354 267.4521" clip-path="url(#clipPath2)"/>
      <path fill="none" d="M276 340.4521 L354 374.5479" clip-path="url(#clipPath2)"/>
      <path fill="none" d="M121 321 L187 321" clip-path="url(#clipPath2)"/>
    </g>
  </g>
</svg>
