<?xml version="1.0" encoding="UTF-8"?><svg xmlns="http://www.w3.org/2000/svg" xmlns:xlink="http://www.w3.org/1999/xlink" fill-opacity="1" color-rendering="auto" color-interpolation="auto" text-rendering="auto" stroke="black" stroke-linecap="square" width="476" stroke-miterlimit="10" shape-rendering="auto" stroke-opacity="1" fill="black" stroke-dasharray="none" font-weight="normal" stroke-width="1" height="395" font-family="'Dialog'" font-style="normal" stroke-linejoin="miter" font-size="12px" stroke-dashoffset="0" image-rendering="auto">
  <!--Generated by ySVG 2.6-->
  <defs id="genericDefs"/>
  <g>
    <g fill="white" text-rendering="geometricPrecision" shape-rendering="geometricPrecision" transform="translate(-81,-177)" stroke="white">
      <rect x="81" width="476" height="395" y="177" clip-path="url(#clipPath2)" stroke="none"/>
    </g>
    <g fill="url(#linearGradient1)" text-rendering="geometricPrecision" shape-rendering="geometricPrecision" transform="matrix(1,0,0,1,-81,-177)" stroke="url(#linearGradient1)">
      <path d="M398.5 328.93 C378 306.25 398.5 286 432.12 300.58 C432.12 286 487.88 286 487.88 300.58 C521.5 286 542 306.25 521.5 324.07 C542 346.75 521.5 367 496.08 352.42 C487.88 367 432.12 367 440.32 352.42 C398.5 367 378 346.75 398.5 328.93 Z" stroke="none" clip-path="url(#clipPath2)"/>
    </g>
    <g text-rendering="geometricPrecision" stroke-miterlimit="1.45" shape-rendering="geometricPrecision" transform="matrix(1,0,0,1,-81,-177)" stroke-linecap="butt">
      <path fill="none" d="M398.5 328.93 C378 306.25 398.5 286 432.12 300.58 C432.12 286 487.88 286 487.88 300.58 C521.5 286 542 306.25 521.5 324.07 C542 346.75 521.5 367 496.08 352.42 C487.88 367 432.12 367 440.32 352.42 C398.5 367 378 346.75 398.5 328.93 Z" clip-path="url(#clipPath2)"/>
    </g>
    <g fill="url(#linearGradient2)" text-rendering="geometricPrecision" shape-rendering="geometricPrecision" transform="matrix(1,0,0,1,-81,-177)" stroke="url(#linearGradient2)">
      <path d="M151.5 234.93 C131 212.25 151.5 192 185.12 206.58 C185.12 192 240.88 192 240.88 206.58 C274.5 192 295 212.25 274.5 230.07 C295 252.75 274.5 273 249.08 258.42 C240.88 273 185.12 273 193.32 258.42 C151.5 273 131 252.75 151.5 234.93 Z" stroke="none" clip-path="url(#clipPath2)"/>
    </g>
    <g text-rendering="geometricPrecision" stroke-miterlimit="1.45" shape-rendering="geometricPrecision" transform="matrix(1,0,0,1,-81,-177)" stroke-linecap="butt">
      <path fill="none" d="M151.5 234.93 C131 212.25 151.5 192 185.12 206.58 C185.12 192 240.88 192 240.88 206.58 C274.5 192 295 212.25 274.5 230.07 C295 252.75 274.5 273 249.08 258.42 C240.88 273 185.12 273 193.32 258.42 C151.5 273 131 252.75 151.5 234.93 Z" clip-path="url(#clipPath2)"/>
    </g>
    <g fill="white" text-rendering="geometricPrecision" shape-rendering="geometricPrecision" transform="matrix(1,0,0,1,-81,-177)" stroke="white">
      <rect x="159" width="68" height="41" y="243" clip-path="url(#clipPath2)" stroke="none"/>
    </g>
    <g text-rendering="geometricPrecision" stroke-miterlimit="1.45" shape-rendering="geometricPrecision" transform="matrix(1,0,0,1,-81,-177)" stroke-linecap="butt">
      <rect fill="none" x="159" width="68" height="41" y="243" clip-path="url(#clipPath2)"/>
      <text x="183.8154" xml:space="preserve" y="268.0352" clip-path="url(#clipPath2)" font-family="sans-serif" stroke="none">API</text>
    </g>
    <g fill="white" text-rendering="geometricPrecision" shape-rendering="geometricPrecision" transform="matrix(1,0,0,1,-81,-177)" stroke="white">
      <rect x="369" width="68" height="41" y="338" clip-path="url(#clipPath2)" stroke="none"/>
    </g>
    <g text-rendering="geometricPrecision" stroke-miterlimit="1.45" shape-rendering="geometricPrecision" transform="matrix(1,0,0,1,-81,-177)" stroke-linecap="butt">
      <rect fill="none" x="369" width="68" height="41" y="338" clip-path="url(#clipPath2)"/>
      <text x="393.8154" xml:space="preserve" y="363.0352" clip-path="url(#clipPath2)" font-family="sans-serif" stroke="none">API</text>
    </g>
    <g text-rendering="geometricPrecision" shape-rendering="geometricPrecision" transform="matrix(1,0,0,1,15.1994,291.6646)">
      <g clip-path="url(#clipPath3)">
        <svg xmlns:dc="http://purl.org/dc/elements/1.1/" xmlns:cc="http://creativecommons.org/ns#" xmlns:rdf="http://www.w3.org/1999/02/22-rdf-syntax-ns#" opacity="1" writing-mode="lr-tb" stop-color="rgb(0, 0, 0)" shape-rendering="auto" glyph-orientation-horizontal="0deg" color-profile="auto" lighting-color="rgb(255, 255, 255)" color="rgb(0, 0, 0)" font-weight="400" alignment-baseline="auto" font-style="normal" version="1.1" color-interpolation-filters="linearrgb" text-anchor="start" stroke-linecap="butt" color-interpolation="srgb" font-variant="normal" word-spacing="normal" fill-opacity="1" text-rendering="auto" clip-path="none" text-decoration="none" letter-spacing="normal" viewBox="0 0 77.42 79.97" glyph-orientation-vertical="auto" display="inline" font-size-adjust="none" fill="rgb(0, 0, 0)" overflow="hidden" font-stretch="normal" stroke-dasharray="none" stroke-miterlimit="4" stop-opacity="1" color-rendering="auto" font-size="12" pointer-events="visiblepainted" mask="none" direction="ltr" baseline-shift="baseline" enable-background="accumulate" fill-rule="nonzero" image-rendering="auto" stroke-dashoffset="0" width="77.42" marker-end="none" clip="auto" cursor="auto" stroke="none" filter="none" visibility="visible" kerning="auto" stroke-width="1" font-family="&quot;Arial&quot;,&quot;Helvetica&quot;,sans-serif" flood-opacity="1" clip-rule="nonzero" src="none" height="79.97" unicode-bidi="normal" stroke-linejoin="miter" stroke-opacity="1" flood-color="rgb(0, 0, 0)" dominant-baseline="auto" marker-start="none" marker-mid="none">
           
          <title>Firefox Browser logo</title>
           
          <defs>
              
            <linearGradient gradientTransform="translate(-1.3 -.004086)" x1="70.79" gradientUnits="userSpaceOnUse" x2="6.447" y1="12.39" y2="74.47" id="svg1.a">
                 
              <stop stop-color="#fff44f" offset=".048"/>
                 
              <stop stop-color="#ffe847" offset=".111"/>
                 
              <stop stop-color="#ffc830" offset=".225"/>
                 
              <stop stop-color="#ff980e" offset=".368"/>
                 
              <stop stop-color="#ff8b16" offset=".401"/>
                 
              <stop stop-color="#ff672a" offset=".462"/>
                 
              <stop stop-color="#ff3647" offset=".534"/>
                 
              <stop stop-color="#e31587" offset=".705"/>
                
            </linearGradient>
              
            <radialGradient gradientTransform="translate(7974,8524)" id="svg1.b" r="80.8" cx="-7907" gradientUnits="userSpaceOnUse" cy="-8515">
                 
              <stop stop-color="#ffbd4f" offset=".129"/>
                 
              <stop stop-color="#ffac31" offset=".186"/>
                 
              <stop stop-color="#ff9d17" offset=".247"/>
                 
              <stop stop-color="#ff980e" offset=".283"/>
                 
              <stop stop-color="#ff563b" offset=".403"/>
                 
              <stop stop-color="#ff3750" offset=".467"/>
                 
              <stop stop-color="#f5156c" offset=".71"/>
                 
              <stop stop-color="#eb0878" offset=".782"/>
                 
              <stop stop-color="#e50080" offset=".86"/>
                
            </radialGradient>
              
            <radialGradient gradientTransform="translate(7974,8524)" id="svg1.c" r="80.8" cx="-7937" gradientUnits="userSpaceOnUse" cy="-8482">
                 
              <stop stop-color="#960e18" offset=".3"/>
                 
              <stop stop-color="#b11927" stop-opacity=".74" offset=".351"/>
                 
              <stop stop-color="#db293d" stop-opacity=".343" offset=".435"/>
                 
              <stop stop-color="#f5334b" stop-opacity=".094" offset=".497"/>
                 
              <stop stop-color="#ff3750" stop-opacity="0" offset=".53"/>
                
            </radialGradient>
              
            <radialGradient gradientTransform="translate(7974,8524)" id="svg1.d" r="58.53" cx="-7927" gradientUnits="userSpaceOnUse" cy="-8533">
                 
              <stop stop-color="#fff44f" offset=".132"/>
                 
              <stop stop-color="#ffdc3e" offset=".252"/>
                 
              <stop stop-color="#ff9d12" offset=".506"/>
                 
              <stop stop-color="#ff980e" offset=".526"/>
                
            </radialGradient>
              
            <radialGradient gradientTransform="translate(7974,8524)" id="svg1.e" r="38.47" cx="-7946" gradientUnits="userSpaceOnUse" cy="-8461">
                 
              <stop stop-color="#3a8ee6" offset=".353"/>
                 
              <stop stop-color="#5c79f0" offset=".472"/>
                 
              <stop stop-color="#9059ff" offset=".669"/>
                 
              <stop stop-color="#c139e6" offset="1"/>
                
            </radialGradient>
              
            <radialGradient gradientTransform="matrix(.972 -.235 .275 1.138 10090 7834)" id="svg1.f" r="20.4" cx="-7936" gradientUnits="userSpaceOnUse" cy="-8492">
                 
              <stop stop-color="#9059ff" stop-opacity="0" offset=".206"/>
                 
              <stop stop-color="#8c4ff3" stop-opacity=".064" offset=".278"/>
                 
              <stop stop-color="#7716a8" stop-opacity=".45" offset=".747"/>
                 
              <stop stop-color="#6e008b" stop-opacity=".6" offset=".975"/>
                
            </radialGradient>
              
            <radialGradient gradientTransform="translate(7974,8524)" id="svg1.g" r="27.68" cx="-7938" gradientUnits="userSpaceOnUse" cy="-8518">
                 
              <stop stop-color="#ffe226" offset="0"/>
                 
              <stop stop-color="#ffdb27" offset=".121"/>
                 
              <stop stop-color="#ffc82a" offset=".295"/>
                 
              <stop stop-color="#ffa930" offset=".502"/>
                 
              <stop stop-color="#ff7e37" offset=".732"/>
                 
              <stop stop-color="#ff7139" offset=".792"/>
                
            </radialGradient>
              
            <radialGradient gradientTransform="translate(7974,8524)" id="svg1.h" r="118.1" cx="-7916" gradientUnits="userSpaceOnUse" cy="-8536">
                 
              <stop stop-color="#fff44f" offset=".113"/>
                 
              <stop stop-color="#ff980e" offset=".456"/>
                 
              <stop stop-color="#ff5634" offset=".622"/>
                 
              <stop stop-color="#ff3647" offset=".716"/>
                 
              <stop stop-color="#e31587" offset=".904"/>
                
            </radialGradient>
              
            <radialGradient gradientTransform="matrix(.105 .995 -.653 .069 -4685 8470)" id="svg1.i" r="86.5" cx="-7927" gradientUnits="userSpaceOnUse" cy="-8523">
                 
              <stop stop-color="#fff44f" offset="0"/>
                 
              <stop stop-color="#ffe847" offset=".06"/>
                 
              <stop stop-color="#ffc830" offset=".168"/>
                 
              <stop stop-color="#ff980e" offset=".304"/>
                 
              <stop stop-color="#ff8b16" offset=".356"/>
                 
              <stop stop-color="#ff672a" offset=".455"/>
                 
              <stop stop-color="#ff3647" offset=".57"/>
                 
              <stop stop-color="#e31587" offset=".737"/>
                
            </radialGradient>
              
            <radialGradient gradientTransform="translate(7974,8524)" id="svg1.j" r="73.72" cx="-7938" gradientUnits="userSpaceOnUse" cy="-8508">
                 
              <stop stop-color="#fff44f" offset=".137"/>
                 
              <stop stop-color="#ff980e" offset=".48"/>
                 
              <stop stop-color="#ff5634" offset=".592"/>
                 
              <stop stop-color="#ff3647" offset=".655"/>
                 
              <stop stop-color="#e31587" offset=".904"/>
                
            </radialGradient>
              
            <radialGradient gradientTransform="translate(7974,8524)" id="svg1.k" r="80.69" cx="-7919" gradientUnits="userSpaceOnUse" cy="-8504">
                 
              <stop stop-color="#fff44f" offset=".094"/>
                 
              <stop stop-color="#ffe141" offset=".231"/>
                 
              <stop stop-color="#ffaf1e" offset=".509"/>
                 
              <stop stop-color="#ff980e" offset=".626"/>
                
            </radialGradient>
              
            <linearGradient gradientTransform="translate(-1.3 -.004086)" x1="70.01" gradientUnits="userSpaceOnUse" x2="15.27" y1="12.06" y2="66.81" id="svg1.l">
                 
              <stop stop-color="#fff44f" stop-opacity=".8" offset=".167"/>
                 
              <stop stop-color="#fff44f" stop-opacity=".634" offset=".266"/>
                 
              <stop stop-color="#fff44f" stop-opacity=".217" offset=".489"/>
                 
              <stop stop-color="#fff44f" stop-opacity="0" offset=".6"/>
                
            </linearGradient>
             
            <linearGradient x1="378" gradientUnits="userSpaceOnUse" x2="542" y1="286" y2="367" id="linearGradient1" spreadMethod="reflect">
              <stop stop-opacity="1" stop-color="rgb(232,238,247)" offset="0%"/>
              <stop stop-opacity="1" stop-color="rgb(183,201,227)" offset="100%"/>
            </linearGradient>
            <linearGradient x1="131" gradientUnits="userSpaceOnUse" x2="295" y1="192" y2="273" id="linearGradient2" spreadMethod="reflect">
              <stop stop-opacity="1" stop-color="rgb(232,238,247)" offset="0%"/>
              <stop stop-opacity="1" stop-color="rgb(183,201,227)" offset="100%"/>
            </linearGradient>
            <clipPath clipPathUnits="userSpaceOnUse" id="clipPath1">
              <path d="M0 0 L476 0 L476 395 L0 395 L0 0 Z"/>
            </clipPath>
            <clipPath clipPathUnits="userSpaceOnUse" id="clipPath2">
              <path d="M81 177 L557 177 L557 572 L81 572 L81 177 Z"/>
            </clipPath>
            <clipPath clipPathUnits="userSpaceOnUse" id="clipPath3">
              <path d="M-15.1994 -291.6646 L460.8006 -291.6646 L460.8006 103.3354 L-15.1994 103.3354 L-15.1994 -291.6646 Z"/>
            </clipPath>
          </defs>
           
          <g transform="matrix(.9819843 0 0 .9819843 .6974849 .7199239)">
              
            <path fill="url(#svg1.a)" d="m74.62 26.83c-1.684-4.052-5.1-8.427-7.775-9.81a40.27 40.27 0 0 1 3.925 11.76l7e-3 0.065c-4.382-10.92-11.81-15.33-17.88-24.92-0.307-0.485-0.614-0.971-0.913-1.484-0.171-0.293-0.308-0.557-0.427-0.8a7.053 7.053 0 0 1-0.578-1.535 0.1 0.1 0 0 0-0.088-0.1 0.138 0.138 0 0 0-0.073 0c-5e-3 0-0.013 9e-3 -0.019 0.011s-0.019 0.011-0.028 0.015l0.015-0.026c-9.735 5.7-13.04 16.25-13.34 21.53a19.39 19.39 0 0 0-10.67 4.111 11.59 11.59 0 0 0-1-0.758 17.97 17.97 0 0 1-0.109-9.473 28.7 28.7 0 0 0-9.329 7.21h-0.018c-1.536-1.947-1.428-8.367-1.34-9.708a6.928 6.928 0 0 0-1.294 0.687 28.22 28.22 0 0 0-3.788 3.245 33.84 33.84 0 0 0-3.623 4.347v6e-3 -7e-3a32.73 32.73 0 0 0-5.2 11.74l-0.052 0.256c-0.073 0.341-0.336 2.049-0.381 2.42 0 0.029-6e-3 0.056-9e-3 0.085a36.94 36.94 0 0 0-0.629 5.343v0.2a38.76 38.76 0 0 0 76.95 6.554c0.065-0.5 0.118-0.995 0.176-1.5a39.86 39.86 0 0 0-2.514-19.47zm-44.67 30.34c0.181 0.087 0.351 0.181 0.537 0.264l0.027 0.017q-0.282-0.135-0.564-0.281zm8.878-23.38m31.95-4.934v-0.037l7e-3 0.041z"/>
              
            <path fill="url(#svg1.b)" d="m74.62 26.83c-1.684-4.052-5.1-8.427-7.775-9.81a40.27 40.27 0 0 1 3.925 11.76v0.037l7e-3 0.041a35.1 35.1 0 0 1-1.206 26.16c-4.442 9.531-15.19 19.3-32.02 18.82-18.18-0.515-34.2-14.01-37.19-31.68-0.545-2.787 0-4.2 0.274-6.465a28.88 28.88 0 0 0-0.623 5.348v0.2a38.76 38.76 0 0 0 76.95 6.554c0.065-0.5 0.118-0.995 0.176-1.5a39.86 39.86 0 0 0-2.514-19.47z"/>
              
            <path fill="url(#svg1.c)" d="m74.62 26.83c-1.684-4.052-5.1-8.427-7.775-9.81a40.27 40.27 0 0 1 3.925 11.76v0.037l7e-3 0.041a35.1 35.1 0 0 1-1.206 26.16c-4.442 9.531-15.19 19.3-32.02 18.82-18.18-0.515-34.2-14.01-37.19-31.68-0.545-2.787 0-4.2 0.274-6.465a28.88 28.88 0 0 0-0.623 5.348v0.2a38.76 38.76 0 0 0 76.95 6.554c0.065-0.5 0.118-0.995 0.176-1.5a39.86 39.86 0 0 0-2.514-19.47z"/>
              
            <path fill="url(#svg1.d)" d="m55.78 31.38c0.084 0.059 0.162 0.118 0.241 0.177a21.1 21.1 0 0 0-3.6-4.695c-12.05-12.05-3.157-26.12-1.658-26.84l0.015-0.022c-9.735 5.7-13.04 16.25-13.34 21.53 0.452-0.031 0.9-0.069 1.362-0.069a19.56 19.56 0 0 1 16.98 9.917z"/>
              
            <path fill="url(#svg1.e)" d="m38.82 33.79c-0.064 0.964-3.47 4.289-4.661 4.289-11.02 0-12.81 6.667-12.81 6.667 0.488 5.614 4.4 10.24 9.129 12.68 0.216 0.112 0.435 0.213 0.654 0.312q0.569 0.252 1.138 0.466a17.24 17.24 0 0 0 5.043 0.973c19.32 0.906 23.06-23.1 9.119-30.07a13.38 13.38 0 0 1 9.345 2.269 19.56 19.56 0 0 0-16.98-9.917c-0.46 0-0.91 0.038-1.362 0.069a19.39 19.39 0 0 0-10.67 4.111c0.591 0.5 1.258 1.168 2.663 2.553 2.63 2.591 9.375 5.275 9.39 5.59z"/>
              
            <path fill="url(#svg1.f)" d="m38.82 33.79c-0.064 0.964-3.47 4.289-4.661 4.289-11.02 0-12.81 6.667-12.81 6.667 0.488 5.614 4.4 10.24 9.129 12.68 0.216 0.112 0.435 0.213 0.654 0.312q0.569 0.252 1.138 0.466a17.24 17.24 0 0 0 5.043 0.973c19.32 0.906 23.06-23.1 9.119-30.07a13.38 13.38 0 0 1 9.345 2.269 19.56 19.56 0 0 0-16.98-9.917c-0.46 0-0.91 0.038-1.362 0.069a19.39 19.39 0 0 0-10.67 4.111c0.591 0.5 1.258 1.168 2.663 2.553 2.63 2.591 9.375 5.275 9.39 5.59z"/>
              
            <path fill="url(#svg1.g)" d="m24.96 24.36c0.314 0.2 0.573 0.374 0.8 0.531a17.97 17.97 0 0 1-0.109-9.473 28.7 28.7 0 0 0-9.329 7.21c0.189-5e-3 5.811-0.106 8.638 1.732z"/>
              
            <path fill="url(#svg1.h)" d="m0.354 42.16c2.991 17.67 19.01 31.17 37.19 31.68 16.83 0.476 27.58-9.294 32.02-18.82a35.1 35.1 0 0 0 1.206-26.16v-0.037c0-0.029-6e-3 -0.046 0-0.037l7e-3 0.065c1.375 8.977-3.191 17.67-10.33 23.56l-0.022 0.05c-13.91 11.33-27.22 6.834-29.91 5q-0.282-0.135-0.564-0.281c-8.109-3.876-11.46-11.26-10.74-17.6a9.953 9.953 0 0 1-9.181-5.775 14.62 14.62 0 0 1 14.25-0.572 19.3 19.3 0 0 0 14.55 0.572c-0.015-0.315-6.76-3-9.39-5.59-1.405-1.385-2.072-2.052-2.663-2.553a11.59 11.59 0 0 0-1-0.758c-0.23-0.157-0.489-0.327-0.8-0.531-2.827-1.838-8.449-1.737-8.635-1.732h-0.018c-1.536-1.947-1.428-8.367-1.34-9.708a6.928 6.928 0 0 0-1.294 0.687 28.22 28.22 0 0 0-3.788 3.245 33.84 33.84 0 0 0-3.638 4.337v6e-3 -7e-3a32.73 32.73 0 0 0-5.2 11.74c-0.019 0.079-1.396 6.099-0.717 9.221z"/>
              
            <path fill="url(#svg1.i)" d="m52.42 26.86a21.1 21.1 0 0 1 3.6 4.7c0.213 0.161 0.412 0.321 0.581 0.476 8.787 8.1 4.183 19.55 3.84 20.36 7.138-5.881 11.7-14.58 10.33-23.56-4.384-10.93-11.82-15.34-17.88-24.93-0.307-0.485-0.614-0.971-0.913-1.484-0.171-0.293-0.308-0.557-0.427-0.8a7.053 7.053 0 0 1-0.578-1.535 0.1 0.1 0 0 0-0.088-0.1 0.138 0.138 0 0 0-0.073 0c-5e-3 0-0.013 9e-3 -0.019 0.011s-0.019 0.011-0.028 0.015c-1.499 0.711-10.39 14.79 1.66 26.83z"/>
              
            <path fill="url(#svg1.j)" d="m56.6 32.04c-0.169-0.155-0.368-0.315-0.581-0.476-0.079-0.059-0.157-0.118-0.241-0.177a13.38 13.38 0 0 0-9.345-2.269c13.94 6.97 10.2 30.97-9.119 30.07a17.24 17.24 0 0 1-5.043-0.973q-0.569-0.213-1.138-0.466c-0.219-0.1-0.438-0.2-0.654-0.312l0.027 0.017c2.694 1.839 16 6.332 29.91-5l0.022-0.05c0.347-0.81 4.951-12.26-3.84-20.36z"/>
              
            <path fill="url(#svg1.k)" d="m21.35 44.74s1.789-6.667 12.81-6.667c1.191 0 4.6-3.325 4.661-4.289a19.3 19.3 0 0 1-14.55-0.572 14.62 14.62 0 0 0-14.25 0.572 9.953 9.953 0 0 0 9.181 5.775c-0.718 6.337 2.632 13.72 10.74 17.6 0.181 0.087 0.351 0.181 0.537 0.264-4.733-2.445-8.641-7.069-9.129-12.68z"/>
              
            <path fill="url(#svg1.l)" d="m74.62 26.83c-1.684-4.052-5.1-8.427-7.775-9.81a40.27 40.27 0 0 1 3.925 11.76l7e-3 0.065c-4.382-10.92-11.81-15.33-17.88-24.92-0.307-0.485-0.614-0.971-0.913-1.484-0.171-0.293-0.308-0.557-0.427-0.8a7.053 7.053 0 0 1-0.578-1.535 0.1 0.1 0 0 0-0.088-0.1 0.138 0.138 0 0 0-0.073 0c-5e-3 0-0.013 9e-3 -0.019 0.011s-0.019 0.011-0.028 0.015l0.015-0.026c-9.735 5.7-13.04 16.25-13.34 21.53 0.452-0.031 0.9-0.069 1.362-0.069a19.56 19.56 0 0 1 16.98 9.917 13.38 13.38 0 0 0-9.345-2.269c13.94 6.97 10.2 30.97-9.119 30.07a17.24 17.24 0 0 1-5.043-0.973q-0.569-0.213-1.138-0.466c-0.219-0.1-0.438-0.2-0.654-0.312l0.027 0.017q-0.282-0.135-0.564-0.281c0.181 0.087 0.351 0.181 0.537 0.264-4.733-2.446-8.641-7.07-9.129-12.68 0 0 1.789-6.667 12.81-6.667 1.191 0 4.6-3.325 4.661-4.289-0.015-0.315-6.76-3-9.39-5.59-1.405-1.385-2.072-2.052-2.663-2.553a11.59 11.59 0 0 0-1-0.758 17.97 17.97 0 0 1-0.109-9.473 28.7 28.7 0 0 0-9.329 7.21h-0.018c-1.536-1.947-1.428-8.367-1.34-9.708a6.928 6.928 0 0 0-1.294 0.687 28.22 28.22 0 0 0-3.788 3.245 33.84 33.84 0 0 0-3.623 4.347v6e-3 -7e-3a32.73 32.73 0 0 0-5.2 11.74l-0.052 0.256c-0.073 0.341-0.4 2.073-0.447 2.445a45.09 45.09 0 0 0-0.572 5.403v0.2a38.76 38.76 0 0 0 76.95 6.554c0.065-0.5 0.118-0.995 0.176-1.5a39.86 39.86 0 0 0-2.514-19.47zm-3.845 1.991 7e-3 0.041z"/>
             
          </g>
           
          <metadata>
  
 </metadata>
          
        </svg>
      </g>
    </g>
    <g fill="white" text-rendering="geometricPrecision" shape-rendering="geometricPrecision" transform="matrix(1,0,0,1,-81,-177)" stroke="white">
      <rect x="101" width="68" height="41" y="451.3654" clip-path="url(#clipPath2)" stroke="none"/>
    </g>
    <g text-rendering="geometricPrecision" stroke-miterlimit="1.45" shape-rendering="geometricPrecision" transform="matrix(1,0,0,1,-81,-177)" stroke-linecap="butt">
      <rect fill="none" x="101" width="68" height="41" y="451.3654" clip-path="url(#clipPath2)"/>
      <text x="109.1572" xml:space="preserve" y="476.4005" clip-path="url(#clipPath2)" font-family="sans-serif" stroke="none">Web App</text>
    </g>
    <g fill="white" text-rendering="geometricPrecision" shape-rendering="geometricPrecision" transform="matrix(1,0,0,1,-81,-177)" stroke="white">
      <rect x="277" width="68" height="41" y="474.7307" clip-path="url(#clipPath2)" stroke="none"/>
    </g>
    <g text-rendering="geometricPrecision" stroke-miterlimit="1.45" shape-rendering="geometricPrecision" transform="matrix(1,0,0,1,-81,-177)" stroke-linecap="butt">
      <rect fill="none" x="277" width="68" height="41" y="474.7307" clip-path="url(#clipPath2)"/>
      <text x="291.5586" xml:space="preserve" y="492.6995" clip-path="url(#clipPath2)" font-family="sans-serif" stroke="none">Mobile</text>
      <text x="299.3076" xml:space="preserve" y="506.8323" clip-path="url(#clipPath2)" font-family="sans-serif" stroke="none">App</text>
      <text x="172.0117" xml:space="preserve" y="407.5352" clip-path="url(#clipPath2)" font-family="sans-serif" stroke="none">http</text>
      <text x="363.0117" xml:space="preserve" y="447.5352" clip-path="url(#clipPath2)" font-family="sans-serif" stroke="none">http</text>
      <text x="290.0117" xml:space="preserve" y="331.0352" clip-path="url(#clipPath2)" font-family="sans-serif" stroke="none">http</text>
      <path fill="none" d="M227 278.881 L369 343.119" clip-path="url(#clipPath2)"/>
      <path fill="none" d="M142.8516 443.6584 L185.1484 291.707" clip-path="url(#clipPath2)"/>
      <path d="M140.7063 451.3654 L148.7411 441.1457 L143.1198 442.695 L139.1074 438.4641 Z" clip-path="url(#clipPath2)" stroke="none"/>
      <path d="M187.2937 284 L179.2589 294.2197 L184.8802 292.6704 L188.8926 296.9013 Z" clip-path="url(#clipPath2)" stroke="none"/>
      <path fill="none" d="M329.2595 468.0934 L384.7405 385.6374" clip-path="url(#clipPath2)"/>
      <path d="M324.7935 474.7307 L335.6409 467.5659 L329.8177 467.2637 L327.3441 461.9834 Z" clip-path="url(#clipPath2)" stroke="none"/>
      <path d="M389.2065 379 L378.3591 386.1649 L384.1822 386.4671 L386.6559 391.7473 Z" clip-path="url(#clipPath2)" stroke="none"/>
    </g>
  </g>
</svg>
