<?xml version="1.0" encoding="UTF-8"?><svg xmlns="http://www.w3.org/2000/svg" xmlns:xlink="http://www.w3.org/1999/xlink" fill-opacity="1" color-rendering="auto" color-interpolation="auto" text-rendering="auto" stroke="black" stroke-linecap="square" width="379" stroke-miterlimit="10" shape-rendering="auto" stroke-opacity="1" fill="black" stroke-dasharray="none" font-weight="normal" stroke-width="1" height="307" font-family="'Dialog'" font-style="normal" stroke-linejoin="miter" font-size="12px" stroke-dashoffset="0" image-rendering="auto">
  <!--Generated by ySVG 2.6-->
  <defs id="genericDefs"/>
  <g>
    <defs id="defs1">
      <clipPath clipPathUnits="userSpaceOnUse" id="clipPath1">
        <path d="M0 0 L379 0 L379 307 L0 307 L0 0 Z"/>
      </clipPath>
      <clipPath clipPathUnits="userSpaceOnUse" id="clipPath2">
        <path d="M308 151 L687 151 L687 458 L308 458 L308 151 Z"/>
      </clipPath>
    </defs>
    <g fill="white" text-rendering="geometricPrecision" shape-rendering="geometricPrecision" transform="translate(-308,-151)" stroke="white">
      <rect x="308" width="379" height="307" y="151" clip-path="url(#clipPath2)" stroke="none"/>
    </g>
    <g text-rendering="geometricPrecision" stroke-miterlimit="1.45" shape-rendering="geometricPrecision" transform="matrix(1,0,0,1,-308,-151)" stroke-linecap="butt">
      <rect fill="none" x="323" width="137" height="58" y="166" clip-path="url(#clipPath2)"/>
      <text x="365.332" xml:space="preserve" y="199.5352" clip-path="url(#clipPath2)" font-family="sans-serif" stroke="none">Frontend</text>
      <rect fill="none" x="323" width="137" height="58" y="278" clip-path="url(#clipPath2)"/>
      <text x="367.3125" xml:space="preserve" y="311.5352" clip-path="url(#clipPath2)" font-family="sans-serif" stroke="none">Backend</text>
      <rect fill="none" x="323" width="137" height="58" y="385" clip-path="url(#clipPath2)"/>
      <text x="369.4863" xml:space="preserve" y="418.5352" clip-path="url(#clipPath2)" font-family="sans-serif" stroke="none">Storage</text>
      <text x="541.8506" xml:space="preserve" y="290.3359" clip-path="url(#clipPath2)" font-family="sans-serif" stroke="none">JavaScript/Typescript</text>
      <text x="583.6719" xml:space="preserve" y="304.4688" clip-path="url(#clipPath2)" font-family="sans-serif" stroke="none">Python</text>
      <text x="591.9014" xml:space="preserve" y="318.6016" clip-path="url(#clipPath2)" font-family="sans-serif" stroke="none">Java</text>
      <text x="595.5547" xml:space="preserve" y="332.7344" clip-path="url(#clipPath2)" font-family="sans-serif" stroke="none">C#</text>
      <path fill="none" d="M391.5 224 L391.5 278" clip-path="url(#clipPath2)"/>
      <path fill="none" d="M391.5 336 L391.5 385" clip-path="url(#clipPath2)"/>
      <path fill="none" stroke-dasharray="6,2" d="M535 307 L468 307" clip-path="url(#clipPath2)"/>
      <path stroke-dasharray="6,2" d="M460 307 L472 312 L469 307 L472 302 Z" clip-path="url(#clipPath2)" stroke="none"/>
    </g>
  </g>
</svg>
