<?xml version="1.0" encoding="UTF-8"?><svg xmlns="http://www.w3.org/2000/svg" xmlns:xlink="http://www.w3.org/1999/xlink" fill-opacity="1" color-rendering="auto" color-interpolation="auto" text-rendering="auto" stroke="black" stroke-linecap="square" width="386" stroke-miterlimit="10" shape-rendering="auto" stroke-opacity="1" fill="black" stroke-dasharray="none" font-weight="normal" stroke-width="1" height="338" font-family="'Dialog'" font-style="normal" stroke-linejoin="miter" font-size="12px" stroke-dashoffset="0" image-rendering="auto">
  <!--Generated by ySVG 2.6-->
  <defs id="genericDefs"/>
  <g>
    <defs id="defs1">
      <clipPath clipPathUnits="userSpaceOnUse" id="clipPath1">
        <path d="M0 0 L386 0 L386 338 L0 338 L0 0 Z"/>
      </clipPath>
      <clipPath clipPathUnits="userSpaceOnUse" id="clipPath2">
        <path d="M238 151 L624 151 L624 489 L238 489 L238 151 Z"/>
      </clipPath>
    </defs>
    <g fill="white" text-rendering="geometricPrecision" shape-rendering="geometricPrecision" transform="translate(-238,-151)" stroke="white">
      <rect x="238" width="386" height="338" y="151" clip-path="url(#clipPath2)" stroke="none"/>
    </g>
    <g text-rendering="geometricPrecision" stroke-miterlimit="1.45" shape-rendering="geometricPrecision" transform="matrix(1,0,0,1,-238,-151)" stroke-linecap="butt">
      <rect fill="none" x="323" width="137" height="58" y="166" clip-path="url(#clipPath2)"/>
      <text x="365.332" xml:space="preserve" y="199.5352" clip-path="url(#clipPath2)" font-family="sans-serif" stroke="none">Frontend</text>
      <rect fill="none" x="323" width="137" height="58" y="278" clip-path="url(#clipPath2)"/>
      <text x="367.3125" xml:space="preserve" y="311.5352" clip-path="url(#clipPath2)" font-family="sans-serif" stroke="none">Backend</text>
      <rect fill="none" x="323" width="137" height="58" y="385" clip-path="url(#clipPath2)"/>
      <text x="369.4863" xml:space="preserve" y="418.5352" clip-path="url(#clipPath2)" font-family="sans-serif" stroke="none">Storage</text>
      <text x="511.7773" xml:space="preserve" y="224.9688" clip-path="url(#clipPath2)" font-family="sans-serif" stroke="none">skalownie</text>
      <text x="521.4307" xml:space="preserve" y="239.1016" clip-path="url(#clipPath2)" font-family="sans-serif" stroke="none">koszty</text>
      <ellipse clip-path="url(#clipPath2)" fill="none" rx="133.5" stroke-dasharray="6,2" cx="386.5" ry="134" cy="340"/>
      <path fill="none" d="M391.5 224 L391.5 278" clip-path="url(#clipPath2)"/>
      <path fill="none" d="M391.5 336 L391.5 385" clip-path="url(#clipPath2)"/>
      <path fill="none" stroke-dasharray="6,2" d="M540.5 256.5 L517.3487 289.9643" clip-path="url(#clipPath2)"/>
      <path stroke-dasharray="6,2" d="M512.7972 296.5433 L523.7364 289.5195 L517.9177 289.1419 L515.5126 283.83 Z" clip-path="url(#clipPath2)" stroke="none"/>
    </g>
  </g>
</svg>
